<?xml version="1.0" encoding="iso-8859-1"?>
<!-- Generator: Adobe Illustrator 19.0.0, SVG Export Plug-In . SVG Version: 6.00 Build 0)  -->
<svg xmlns="http://www.w3.org/2000/svg" xmlns:xlink="http://www.w3.org/1999/xlink" version="1.1" id="Layer_1" x="0px" y="0px" viewBox="0 0 512.001 512.001" style="enable-background:new 0 0 512.001 512.001;" xml:space="preserve">
<path style="fill:#62DCD2;" d="M264.959,219.967c-22.37,0-40.505-18.135-40.505-40.505s18.135-40.505,40.505-40.505  c8.363,0,16.132,2.536,22.586,6.879V71.447h-74.377c4.336-6.45,6.868-14.214,6.868-22.569c0-22.37-18.135-40.505-40.505-40.505  s-40.505,18.135-40.505,40.505c0,8.356,2.532,16.12,6.868,22.569H71.517v74.137c-6.375-4.185-13.997-6.627-22.194-6.627  c-22.37,0-40.505,18.135-40.505,40.505s18.135,40.505,40.505,40.505c8.196,0,15.819-2.442,22.194-6.627v74.136h74.298  c-4.286-6.425-6.789-14.143-6.789-22.447c0-22.37,18.135-40.505,40.505-40.505s40.505,18.135,40.505,40.505  c0,8.304-2.503,16.021-6.789,22.447h74.298v-74.388C281.093,217.431,273.322,219.967,264.959,219.967z"/>
<path style="fill:#FD5D65;" d="M480.596,219.967c-22.37,0-40.505-18.135-40.505-40.505s18.135-40.505,40.505-40.505  c8.363,0,16.132,2.536,22.586,6.879V71.447h-74.377c4.336-6.45,6.868-14.214,6.868-22.569c0-22.37-18.135-40.505-40.505-40.505  c-22.37,0-40.505,18.135-40.505,40.505c0,8.356,2.532,16.12,6.867,22.569h-74.377v74.137c-6.375-4.185-13.997-6.627-22.194-6.627  c-22.37,0-40.505,18.135-40.505,40.505s18.135,40.505,40.505,40.505c8.196,0,15.819-2.442,22.194-6.627v74.136h74.297  c-4.286-6.425-6.789-14.143-6.789-22.447c0-22.37,18.135-40.505,40.505-40.505c22.37,0,40.505,18.135,40.505,40.505  c0,8.304-2.503,16.021-6.789,22.447h74.298v-74.388C496.73,217.431,488.959,219.967,480.596,219.967z"/>
<g>
	<path style="fill:#F98F9B;" d="M419.148,48.877c0,8.356-2.532,16.12-6.868,22.569h16.525c4.336-6.45,6.868-14.214,6.868-22.569   c0-22.37-18.135-40.505-40.505-40.505c-2.832,0-5.595,0.292-8.263,0.846C405.313,13.034,419.148,29.339,419.148,48.877z"/>
	<path style="fill:#F98F9B;" d="M486.658,71.447v67.962c6.049,0.909,11.662,3.151,16.525,6.424V71.447H486.658z"/>
	<path style="fill:#F98F9B;" d="M486.658,287.476h16.525v-74.388c-4.864,3.273-10.475,5.517-16.525,6.424V287.476z"/>
</g>
<path style="fill:#72CDED;" d="M480.596,436.119c-22.37,0-40.505-18.135-40.505-40.505c0-22.37,18.135-40.505,40.505-40.505  c8.363,0,16.132,2.536,22.586,6.879v-74.388h-74.377c4.336-6.45,6.868-14.214,6.868-22.569c0-22.37-18.135-40.505-40.505-40.505  c-22.37,0-40.505,18.135-40.505,40.505c0,8.356,2.532,16.12,6.867,22.569h-74.377v74.137c-6.375-4.185-13.997-6.627-22.194-6.627  c-22.37,0-40.505,18.135-40.505,40.505c0,22.37,18.135,40.505,40.505,40.505c8.196,0,15.819-2.442,22.194-6.627v74.137h74.297  c-4.286-6.425-6.789-14.143-6.789-22.447c0-22.37,18.135-40.505,40.505-40.505c22.37,0,40.505,18.135,40.505,40.505  c0,8.304-2.503,16.021-6.789,22.447h74.298V429.24C496.73,433.583,488.959,436.119,480.596,436.119z"/>
<path style="fill:#FEC95B;" d="M264.959,436.119c-22.37,0-40.505-18.135-40.505-40.505c0-22.37,18.135-40.505,40.505-40.505  c8.363,0,16.132,2.536,22.586,6.879v-74.388h-74.377c4.336-6.45,6.868-14.214,6.868-22.569c0-22.37-18.135-40.505-40.505-40.505  s-40.505,18.135-40.505,40.505c0,8.356,2.532,16.12,6.868,22.569H71.517v74.137c-6.375-4.185-13.997-6.627-22.194-6.627  c-22.37,0-40.505,18.135-40.505,40.505c0,22.37,18.135,40.505,40.505,40.505c8.196,0,15.819-2.442,22.194-6.627v74.137h74.298  c-4.286-6.425-6.789-14.143-6.789-22.447c0-22.37,18.135-40.505,40.505-40.505s40.505,18.135,40.505,40.505  c0,8.304-2.503,16.021-6.789,22.447h74.298V429.24C281.093,433.583,273.322,436.119,264.959,436.119z"/>
<g>
	<path style="fill:#A3DFEF;" d="M419.148,264.906c0,8.356-2.532,16.12-6.868,22.569h16.525c4.336-6.45,6.868-14.214,6.868-22.569   c0-22.37-18.135-40.505-40.505-40.505c-2.832,0-5.595,0.292-8.263,0.846C405.313,229.063,419.148,245.368,419.148,264.906z"/>
	<path style="fill:#A3DFEF;" d="M486.658,287.476v67.962c6.049,0.909,11.662,3.151,16.525,6.424v-74.388h-16.525V287.476z"/>
	<path style="fill:#A3DFEF;" d="M486.658,503.505h16.525v-74.388c-4.864,3.273-10.475,5.517-16.525,6.424V503.505z"/>
</g>
<g>
	<path style="fill:#FCE481;" d="M203.511,265.029c0,8.356-2.532,16.12-6.868,22.569h16.525c4.336-6.45,6.868-14.214,6.868-22.569   c0-22.37-18.135-40.505-40.505-40.505c-2.832,0-5.595,0.292-8.263,0.846C189.676,229.185,203.511,245.49,203.511,265.029z"/>
	<path style="fill:#FCE481;" d="M271.021,287.599v67.962c6.049,0.909,11.662,3.151,16.525,6.424v-74.388h-16.525V287.599z"/>
	<path style="fill:#FCE481;" d="M271.021,503.628h16.525V429.24c-4.864,3.273-10.475,5.517-16.525,6.424V503.628L271.021,503.628z"/>
</g>
<g>
	<path style="fill:#92F4EA;" d="M203.12,48.877c0,8.356-2.532,16.12-6.868,22.569h16.525c4.336-6.45,6.868-14.214,6.868-22.569   c0-22.37-18.135-40.505-40.505-40.505c-2.832,0-5.595,0.292-8.263,0.846C189.283,13.034,203.12,29.339,203.12,48.877z"/>
	<path style="fill:#92F4EA;" d="M270.629,71.447v67.962c6.049,0.909,11.662,3.151,16.525,6.424V71.447H270.629z"/>
	<path style="fill:#92F4EA;" d="M270.629,287.476h16.525v-74.388c-4.864,3.273-10.475,5.517-16.525,6.424V287.476z"/>
</g>
<path d="M480.596,147.328c6.417,0,12.612,1.885,17.912,5.453c2.566,1.727,5.876,1.899,8.609,0.444  c2.732-1.453,4.438-4.295,4.438-7.39V71.447c0-4.624-3.747-8.372-8.372-8.372h-61.232c1.384-4.566,2.095-9.341,2.095-14.198  C444.045,21.926,422.119,0,395.168,0c-26.951,0-48.877,21.926-48.877,48.877c0,4.857,0.712,9.631,2.095,14.198h-60.839h-0.393  h-60.841c1.384-4.566,2.095-9.341,2.095-14.198C228.408,21.926,206.482,0,179.53,0s-48.877,21.926-48.877,48.877  c0,4.857,0.712,9.631,2.095,14.198H71.517c-4.625,0-8.372,3.748-8.372,8.372v61.125c-4.456-1.314-9.103-1.988-13.822-1.988  c-26.951,0-48.877,21.926-48.877,48.877s21.927,48.877,48.877,48.877c4.719,0,9.366-0.674,13.822-1.988v61.126  c0,0.021,0.003,0.04,0.003,0.061c0,0.021-0.003,0.04-0.003,0.061v29.107c0,4.624,3.747,8.372,8.372,8.372  c4.625,0,8.372-3.748,8.372-8.372v-20.858h65.926c3.089,0,5.925-1.7,7.382-4.423c1.457-2.723,1.296-6.027-0.417-8.595  c-3.521-5.279-5.382-11.434-5.382-17.801c0-17.719,14.415-32.133,32.133-32.133s32.133,14.415,32.133,32.133  c0,6.367-1.861,12.522-5.382,17.801c-1.714,2.569-1.874,5.873-0.417,8.595c1.458,2.723,4.294,4.423,7.382,4.423h65.927v52.987  c-4.571-1.388-9.351-2.1-14.214-2.1c-26.951,0-48.877,21.926-48.877,48.877c0,26.951,21.927,48.877,48.877,48.877  c4.862,0,9.644-0.713,14.214-2.1v52.865h-52.827c1.362-4.531,2.061-9.263,2.061-14.075c0-26.951-21.927-48.877-48.877-48.877  s-48.877,21.926-48.877,48.877c0,4.811,0.699,9.544,2.061,14.075H79.889v-65.764c0-3.076-1.688-5.906-4.396-7.367  c-2.708-1.461-6-1.321-8.572,0.369c-5.234,3.437-11.321,5.253-17.599,5.253c-17.719,0-32.133-14.414-32.133-32.133  c0-17.719,14.415-32.133,32.133-32.133c6.278,0,12.364,1.816,17.599,5.253c2.574,1.69,5.864,1.83,8.572,0.369  c2.708-1.461,4.396-4.291,4.396-7.367v-17.123c0-4.624-3.747-8.372-8.372-8.372c-4.625,0-8.372,3.748-8.372,8.372v4.111  c-4.456-1.314-9.103-1.988-13.822-1.988c-26.951,0-48.877,21.926-48.877,48.877s21.927,48.877,48.877,48.877  c4.719,0,9.366-0.674,13.822-1.988v61.125c0,4.624,3.747,8.372,8.372,8.372h74.298c3.089,0,5.925-1.7,7.382-4.423  c1.457-2.723,1.296-6.027-0.417-8.595c-3.521-5.279-5.382-11.434-5.382-17.801c0-17.719,14.415-32.133,32.133-32.133  s32.133,14.414,32.133,32.133c0,6.367-1.861,12.522-5.382,17.801c-1.714,2.569-1.874,5.873-0.417,8.595  c1.458,2.723,4.294,4.423,7.382,4.423h73.907h0.393h73.904c3.089,0,5.925-1.7,7.382-4.423s1.296-6.027-0.417-8.595  c-3.521-5.279-5.382-11.434-5.382-17.801c0-17.719,14.414-32.133,32.133-32.133c17.719,0,32.133,14.414,32.133,32.133  c0,6.367-1.861,12.522-5.382,17.801c-1.714,2.569-1.874,5.873-0.417,8.595c1.458,2.723,4.294,4.423,7.382,4.423h74.299  c4.625,0,8.372-3.748,8.372-8.372v-74.388c0-3.094-1.706-5.936-4.438-7.39c-2.733-1.454-6.042-1.283-8.609,0.444  c-5.3,3.566-11.494,5.452-17.912,5.452c-17.719,0-32.133-14.414-32.133-32.133c0-17.719,14.414-32.133,32.133-32.133  c6.417,0,12.612,1.885,17.912,5.452c2.566,1.726,5.876,1.899,8.609,0.444c2.732-1.453,4.438-4.295,4.438-7.39v-47.14  c0-4.624-3.747-8.372-8.372-8.372c-4.625,0-8.372,3.748-8.372,8.372v33.991c-4.571-1.388-9.351-2.1-14.214-2.1  c-26.951,0-48.877,21.926-48.877,48.877s21.927,48.877,48.877,48.877c4.862,0,9.644-0.713,14.214-2.1v52.865h-52.826  c1.362-4.531,2.061-9.263,2.061-14.075c0-26.951-21.927-48.877-48.877-48.877c-26.95,0-48.877,21.926-48.877,48.877  c0,4.811,0.699,9.544,2.061,14.075h-52.433v-66.016c0-3.094-1.706-5.936-4.438-7.39c-2.732-1.455-6.042-1.283-8.609,0.444  c-5.3,3.566-11.494,5.452-17.912,5.452c-17.719,0-32.133-14.414-32.133-32.133c0-17.719,14.414-32.133,32.133-32.133  c6.417,0,12.612,1.885,17.912,5.452c2.566,1.726,5.876,1.9,8.609,0.444c2.732-1.453,4.438-4.295,4.438-7.39v-66.138h65.532  c3.089,0,5.925-1.7,7.382-4.423s1.296-6.027-0.417-8.595c-3.521-5.279-5.382-11.434-5.382-17.801  c0-17.719,14.414-32.133,32.133-32.133c2.675,0,5.331,0.328,7.894,0.975c4.483,1.129,9.035-1.585,10.166-6.069  c1.131-4.483-1.586-9.035-6.07-10.166c-3.901-0.985-7.936-1.484-11.991-1.484c-26.951,0-48.877,21.926-48.877,48.877  c0,4.811,0.699,9.544,2.061,14.075h-52.433v-66.016c0-3.094-1.706-5.936-4.438-7.39c-2.732-1.455-6.042-1.283-8.609,0.444  c-5.3,3.567-11.494,5.452-17.912,5.452c-17.719,0-32.133-14.415-32.133-32.133s14.414-32.133,32.133-32.133  c6.417,0,12.612,1.885,17.912,5.453c2.566,1.727,5.876,1.899,8.609,0.444c2.732-1.453,4.438-4.295,4.438-7.39V79.819h65.612  c3.093,0,5.934-1.706,7.389-4.436s1.285-6.04-0.441-8.606c-3.561-5.298-5.444-11.488-5.444-17.898  c0-17.719,14.414-32.133,32.133-32.133c17.719,0,32.133,14.415,32.133,32.133c0,6.413-1.883,12.602-5.443,17.898  c-1.727,2.567-1.895,5.877-0.442,8.608c1.455,2.73,4.295,4.436,7.389,4.436h66.006v52.865c-4.571-1.388-9.351-2.101-14.214-2.101  c-26.951,0-48.877,21.926-48.877,48.877s21.927,48.877,48.877,48.877c4.862,0,9.644-0.713,14.214-2.1v52.865h-52.826  c1.362-4.531,2.061-9.264,2.061-14.075c0-10.106-3.059-19.806-8.848-28.052c-2.657-3.785-7.878-4.698-11.662-2.043  c-3.785,2.657-4.7,7.878-2.043,11.663c3.8,5.414,5.808,11.788,5.808,18.433c0,6.367-1.861,12.522-5.382,17.801  c-1.714,2.569-1.874,5.873-0.417,8.595c1.458,2.723,4.294,4.423,7.382,4.423h74.299c4.625,0,8.372-3.748,8.372-8.372V213.09  c0-3.094-1.706-5.936-4.438-7.39c-2.733-1.455-6.042-1.283-8.609,0.444c-5.3,3.567-11.494,5.452-17.912,5.452  c-17.719,0-32.133-14.415-32.133-32.133S462.878,147.328,480.596,147.328z M279.174,132.684c-4.571-1.388-9.351-2.101-14.214-2.101  c-26.951,0-48.877,21.926-48.877,48.877s21.927,48.877,48.877,48.877c4.863,0,9.644-0.713,14.214-2.1v52.865h-52.826  c1.362-4.531,2.061-9.264,2.061-14.075c0-26.951-21.927-48.877-48.877-48.877s-48.877,21.926-48.877,48.877  c0,4.811,0.7,9.544,2.061,14.075H79.889v-65.764c0-3.076-1.688-5.906-4.396-7.367s-6-1.321-8.572,0.369  c-5.234,3.437-11.321,5.253-17.599,5.253c-17.719,0-32.133-14.414-32.133-32.133s14.415-32.133,32.133-32.133  c6.278,0,12.363,1.816,17.599,5.254c2.574,1.689,5.864,1.83,8.572,0.368s4.396-4.291,4.396-7.367V79.819h66.004  c3.093,0,5.934-1.706,7.389-4.436s1.285-6.04-0.441-8.606c-3.561-5.298-5.444-11.488-5.444-17.898  c0-17.719,14.415-32.133,32.133-32.133s32.133,14.415,32.133,32.133c0,6.413-1.883,12.602-5.443,17.898  c-1.727,2.567-1.895,5.877-0.442,8.608c1.454,2.73,4.295,4.436,7.389,4.436h66.006v52.864H279.174z"/>
<g>
</g>
<g>
</g>
<g>
</g>
<g>
</g>
<g>
</g>
<g>
</g>
<g>
</g>
<g>
</g>
<g>
</g>
<g>
</g>
<g>
</g>
<g>
</g>
<g>
</g>
<g>
</g>
<g>
</g>
</svg>
